# xmcd
#
# Track frame offsets:
#  150
#  18724
#  36691
#  50067
#  66339
#  83939
#  99252
#  121570
#  137558
#  154039
#  171686
#  196281
#
# Disc length: 2935 seconds
#
# Revision: 2
# Processed by: cddbd v1.4PL0 Copyright (c) Steve Scherf et al.
# Submitted via: AltoMP3_Maker 3.0
#
DISCID=aa0b750c
DTITLE=Geriausios Kaledu dainos - Geriausios Kaledu dainos CD2
DYEAR=1900
DGENRE=
TTITLE0=Vel Kaledos
TTITLE1=Baltos Kaledos
TTITLE2=Susapnuosiu tau
TTITLE3=Svente kurios taip lauki
TTITLE4=Laimingu Naujuju
TTITLE5=Nakties daina
TTITLE6=Jau rytoj Kaledos
TTITLE7=Ziemos stebuklas
TTITLE8=Kaledu ryta
TTITLE9=Zemeje jau Kaledos
TTITLE10=Balta taure
TTITLE11=Jingle Bells
EXTD=
EXTT0=
EXTT1=
EXTT2=
EXTT3=
EXTT4=
EXTT5=
EXTT6=
EXTT7=
EXTT8=
EXTT9=
EXTT10=
EXTT11=
PLAYORDER=
